<svg viewBox="0 0 24 24" xmlns="http://www.w3.org/2000/svg">
  <path fill="currentColor" d="M22.282 9.821a5.985 5.985 0 0 0-.516-4.911 6.046 6.046 0 0 0-6.51-2.9A6.065 6.065 0 0 0 4.981 4.182a5.985 5.985 0 0 0-3.998 2.9 6.046 6.046 0 0 0 .743 7.097 5.98 5.98 0 0 0 .511 4.91 6.051 6.051 0 0 0 6.514 2.9A5.985 5.985 0 0 0 13.26 24a6.056 6.056 0 0 0 5.772-4.206 5.989 5.989 0 0 0 3.997-2.9 6.056 6.056 0 0 0-.747-7.073ZM13.26 22.429a4.476 4.476 0 0 1-2.876-1.041l4.92-2.839a.795.795 0 0 0 .393-.681v-6.736l2.02 1.168.038.052v5.583a4.504 4.504 0 0 1-4.495 4.494ZM3.599 18.304a4.471 4.471 0 0 1-.535-3.014l4.926 2.843a.771.771 0 0 0 .781 0l5.843-3.369v2.332l-.033.062-4.84 2.792a4.499 4.499 0 0 1-6.142-1.646ZM2.341 7.896a4.485 4.485 0 0 1 2.365-1.973V11.6a.766.766 0 0 0 .388.677l5.815 3.354-2.02 1.169h-.071l-4.831-2.787a4.504 4.504 0 0 1-1.646-6.117Zm16.596 3.855-5.833-3.387L15.119 7.2h.071l4.831 2.791a4.494 4.494 0 0 1-.677 8.104v-5.677a.79.79 0 0 0-.407-.667Zm2.011-3.023-4.916-2.867a.776.776 0 0 0-.785 0L9.409 9.23V6.897l.028-.061 4.831-2.787a4.499 4.499 0 0 1 6.68 4.66ZM8.307 12.863l-2.02-1.164-.038-.057V6.074a4.499 4.499 0 0 1 7.376-3.453L8.704 5.459a.795.795 0 0 0-.393.681Zm1.098-2.365 2.602-1.5 2.607 1.5v2.999l-2.598 1.5-2.607-1.5Z"/>
</svg>
